<svg xmlns="http://www.w3.org/2000/svg" viewBox="0 0 1564.47 902.11"><defs><style>.cls-1{fill:#1b1464;}</style></defs><g id="Layer_2" data-name="Layer 2"><g id="Layer_1-2" data-name="Layer 1"><path class="cls-1" d="M888.65,532.93V287.11c0-134.25-36.28-157.84-96.15-157.84-38.09,0-69.85,16.33-88.89,46.27-15.43,24.49-20,53.52-20,120.64V532.93H563V30.4H674.58V78.48C719,35.85,758.94,18.61,816.09,18.61,885.93,18.61,940.36,44,973,91.18c27.22,39,36.28,82.54,36.28,172.34V532.93Z"/><path class="cls-1" d="M1559.94,335.18H1170.8c14.51,60.78,67.12,98.88,138.78,98.88,49.89,0,79.82-13.61,110.66-49.89h131.53c-33.56,103.41-137.88,160.55-239.47,160.55-153.3,0-272.13-114.29-272.13-261.24,0-147.85,117-264.87,264.87-264.87,149.67,0,259.43,114.29,259.43,270.31C1564.47,307.06,1563.56,318,1559.94,335.18ZM1306.86,129.27c-71.66,0-120.65,35.38-139.69,99.79h278.47C1430.22,164.65,1381.24,129.27,1306.86,129.27Z"/><path class="cls-1" d="M446.12,220.88H319.65V137.19q40,0,67-6.51t44.17-20a86.16,86.16,0,0,0,26-33.47,130.17,130.17,0,0,0,5.51-15.51A277.77,277.77,0,0,0,287.19,0C125.18,0,0,123,0,282,0,438.88,126.66,563.33,286.45,563.33c60,0,114.74-17.67,159.67-48.23Z"/><path d="M360,835.76c-21.73,29-42,40.42-71.3,40.42-46.9,0-83.89-37-83.89-83.12,0-46.9,36.23-83.51,82.75-83.51,30.87,0,56.42,14.86,72.44,42.32h31.65c-16.77-42-56.81-68.25-103.71-68.25-62.54,0-111.73,48-111.73,108.68,0,62.15,49.57,109.81,113.64,109.81,43.08,0,77-18.69,102.18-66.35Z"/><path d="M615.14,688.57v37c-20.58-29-46.13-41.94-82.36-41.94C470.25,683.62,423,730.9,423,793.44c0,62.16,47.67,108.67,111.73,108.67,35.46,0,58.34-11.82,80.45-41.57v36.61h28.23V688.57ZM535.07,876.18c-47.29,0-83.52-37-83.52-84.65a81.86,81.86,0,0,1,82-82c45.75,0,81.59,35.85,81.59,82.36C615.14,839.19,580.06,876.18,535.07,876.18Z"/><path d="M719.62,718.32V688.57H691.41V897.15h28.21V775.51c0-38.9,19.83-60.25,59.11-64.06V683.62C748.6,685.13,730.69,695.44,719.62,718.32Z"/><path d="M979.68,615.36v106.4c-20.59-24.79-49.19-38.14-82-38.14-62.92,0-111,47.28-111,109.44,0,61.77,49.19,109.05,113.63,109.05,34.7,0,58.34-12.58,79.31-42.71v37.75h28.22V615.36ZM899.61,876.18c-47.66,0-84.27-36.6-84.27-84.27,0-45.75,36.22-82.36,81.6-82.36,46.13,0,83.88,37,83.88,82.75S944.22,876.18,899.61,876.18Z"/><path d="M1133.43,832.62H1101.8v66.6h-16.48V734.63h45.44c45.21,0,63.47,15.36,63.47,49.89C1194.23,815.7,1178.2,832.62,1133.43,832.62Zm-8.24-83.07H1101.8V817.7h30.52c32.74,0,45.21-9.35,45.21-33.18C1177.53,751.11,1156.59,749.55,1125.19,749.55Z"/><path d="M1226.3,828.17v71.05h-16.48V777.39h16.48v17.37c6.46-13.36,16.93-19.38,34.52-20.27v16.26C1237.88,793,1226.3,805.45,1226.3,828.17Z"/><path d="M1326.3,902.11c-37.86,0-65.25-27.17-65.25-64.59,0-35.63,27.84-63,63.92-63,36.52,0,63.25,27,63.25,64.15C1388.22,875.16,1361.94,902.11,1326.3,902.11ZM1325,789.64c-27,0-47.22,20.71-47.22,48.33,0,28.51,20,49,48.11,49,26.5,0,45.66-20.27,45.66-48.11C1371.52,810.57,1351.69,789.64,1325,789.64Z"/></g></g></svg>