<svg width="212" height="212" viewBox="0 0 212 212" fill="none" xmlns="http://www.w3.org/2000/svg">
<path d="M158.172 56.3125C141.249 56.3125 127.755 64.8132 119.416 71.9475L119.122 72.2001L114.372 77.3634L124.856 94.5926L132.616 86.8123C140.736 79.9555 149.8 76.1875 158.172 76.1875C175.066 76.1875 188.812 89.5617 188.812 106C188.812 122.438 175.066 135.812 158.172 135.812C132.5 135.812 115.051 101.88 114.878 101.536C113.867 99.4951 91.7397 56.3125 53.8281 56.3125C25.9741 56.3125 3.3125 78.6015 3.3125 106C3.3125 133.399 25.9741 155.688 53.8281 155.688C67.4715 155.688 80.8995 150.259 92.663 139.986L92.9156 139.763L97.6277 134.637L87.1395 117.407L79.3427 125.225C71.2187 132.252 62.6311 135.812 53.8281 135.812C36.9344 135.812 23.1875 122.438 23.1875 106C23.1875 89.5617 36.9344 76.1875 53.8281 76.1875C79.5 76.1875 96.9486 110.12 97.1225 110.464C98.1328 112.505 120.26 155.688 158.172 155.688C186.026 155.688 208.688 133.399 208.688 106C208.688 78.6015 186.026 56.3125 158.172 56.3125Z" fill="#40975F"/>
</svg>
