<svg width="32" height="32" viewBox="0 0 32 32" fill="none" xmlns="http://www.w3.org/2000/svg">
<path d="M28 11V10C28 8.3 26.7 7 25 7H3C1.3 7 0 8.3 0 10V11H28Z" fill="#FF4361"/>
<path d="M30 22.2V19C30 16.2 27.8 14 25 14C22.2 14 20 16.2 20 19V22.2C18.8 22.6 18 23.7 18 25V29C18 30.7 19.3 32 21 32H29C30.7 32 32 30.7 32 29V25C32 23.7 31.2 22.6 30 22.2ZM22 19C22 17.3 23.3 16 25 16C26.7 16 28 17.3 28 19V22H22V19ZM26 28C26 28.6 25.6 29 25 29C24.4 29 24 28.6 24 28V26C24 25.4 24.4 25 25 25C25.6 25 26 25.4 26 26V28Z" fill="#FF4361"/>
<path d="M16 25C16 23.9 16.4 22.8 17 22C15.3 22 14 20.7 14 19C14 17.3 15.3 16 17 16C17.5 16 18 16.1 18.5 16.4C19.1 15 20.1 13.8 21.4 13H0V23C0 24.7 1.3 26 3 26H16V25ZM7 22H5C4.4 22 4 21.6 4 21C4 20.4 4.4 20 5 20H7C7.6 20 8 20.4 8 21C8 21.6 7.6 22 7 22ZM10 19H5C4.4 19 4 18.6 4 18C4 17.4 4.4 17 5 17H10C10.6 17 11 17.4 11 18C11 18.6 10.6 19 10 19Z" fill="#FF4361"/>
</svg>
