<svg width="258" height="258" viewBox="0 0 258 258" fill="none" xmlns="http://www.w3.org/2000/svg">
<path d="M133.233 34.4168C131.872 33.6106 130.159 33.6106 128.798 34.4168L50.2395 80.3227H14.7645C6.60117 80.3227 0 86.9239 0 95.0367V164.828C0 172.941 6.60117 179.592 14.7645 179.592H50.2395L128.748 227.665C129.454 228.118 130.26 228.32 131.066 228.32C131.822 228.32 132.578 228.118 133.233 227.766C134.644 226.959 135.5 225.498 135.5 223.886V198.64C135.5 196.171 133.485 194.205 131.066 194.205C128.597 194.205 126.632 196.171 126.632 198.64V215.974L55.984 172.689V87.327L126.632 46.0067V177.274C126.632 179.743 128.647 181.709 131.066 181.709C133.535 181.709 135.5 179.743 135.5 177.274V38.2465C135.45 36.6844 134.593 35.2231 133.233 34.4168ZM8.86875 164.878V95.0367C8.86875 91.8117 11.4891 89.1914 14.7141 89.1914H47.0145V170.723H14.7645C11.5395 170.723 8.86875 168.103 8.86875 164.878Z" fill="#D6AB00"/>
<path d="M171.782 159.688C169.514 158.68 166.894 159.688 165.936 161.955C165.382 163.165 164.828 164.374 164.223 165.533C163.064 167.7 163.87 170.371 166.037 171.53C166.692 171.882 167.398 172.034 168.103 172.034C169.716 172.034 171.227 171.177 172.034 169.665C172.739 168.355 173.394 166.944 174.049 165.533C175.057 163.316 173.999 160.696 171.782 159.688Z" fill="#D6AB00"/>
<path d="M165.18 88.4356C163.064 89.645 162.308 92.3661 163.518 94.4825C168.96 104.057 171.983 116.856 171.983 130.562C171.983 133.485 171.832 136.458 171.58 139.28C171.328 141.698 173.142 143.916 175.561 144.117C175.712 144.117 175.863 144.117 176.014 144.117C178.282 144.117 180.197 142.404 180.449 140.086C180.751 136.962 180.902 133.737 180.902 130.512C180.902 115.294 177.476 100.932 171.278 90.0481C170.068 87.9821 167.347 87.2262 165.18 88.4356Z" fill="#D6AB00"/>
<path d="M207.811 91.459C205.443 92.0637 203.981 94.4824 204.586 96.8508C207.307 107.836 208.718 119.375 208.718 131.217C208.718 157.118 201.966 181.759 189.67 200.555C188.31 202.621 188.914 205.342 190.98 206.702C191.736 207.206 192.593 207.408 193.399 207.408C194.861 207.408 196.271 206.702 197.128 205.392C210.33 185.135 217.637 158.831 217.637 131.167C217.637 118.62 216.176 106.375 213.253 94.684C212.598 92.3156 210.179 90.8543 207.811 91.459Z" fill="#D6AB00"/>
<path d="M200.454 76.493C201.109 76.493 201.764 76.3419 202.369 76.0395C204.586 74.9813 205.543 72.3106 204.485 70.0934C201.814 64.5001 198.741 59.209 195.415 54.3715C194.004 52.3559 191.232 51.852 189.217 53.263C187.201 54.6739 186.697 57.4454 188.108 59.461C191.182 63.8954 194.004 68.7329 196.473 73.9231C197.179 75.5356 198.791 76.493 200.454 76.493Z" fill="#D6AB00"/>
<path d="M239.255 207.307C237.037 206.299 234.367 207.307 233.409 209.575C230.033 217.184 226.153 224.339 221.87 230.89C220.509 232.956 221.114 235.677 223.18 237.038C223.936 237.541 224.793 237.743 225.599 237.743C227.06 237.743 228.471 237.038 229.328 235.727C233.863 228.773 237.995 221.164 241.522 213.152C242.48 210.935 241.472 208.264 239.255 207.307Z" fill="#D6AB00"/>
<path d="M226.859 24.0868C225.448 22.0711 222.676 21.5672 220.661 22.9782C218.645 24.3891 218.141 27.1606 219.552 29.1762C238.6 56.4879 249.081 92.9203 249.081 131.721C249.081 147.544 247.317 163.064 243.891 177.879C243.336 180.247 244.798 182.666 247.216 183.22C247.569 183.321 247.871 183.321 248.224 183.321C250.24 183.321 252.054 181.91 252.558 179.895C256.186 164.425 258 148.199 258 131.721C258 91.1063 246.964 52.9102 226.859 24.0868Z" fill="#D6AB00"/>
</svg>
