<svg width="387" height="223" viewBox="0 0 387 223" fill="none" xmlns="http://www.w3.org/2000/svg">
<g clip-path="url(#clip0_9_19)">
<path d="M219.824 131.739V70.9731C219.824 37.7867 210.849 31.9553 196.039 31.9553C186.617 31.9553 178.761 35.992 174.051 43.3932C170.234 49.447 169.103 56.6232 169.103 73.2152V131.739H139.268V7.51481H166.87V19.4001C177.858 8.86204 187.738 4.60034 201.875 4.60034C219.151 4.60034 232.615 10.8767 240.689 22.5395C247.423 32.1802 249.664 42.9433 249.664 65.1417V131.739H219.824Z" fill="white"/>
<path d="M385.879 82.8559H289.619C293.208 97.8806 306.222 107.299 323.948 107.299C336.29 107.299 343.693 103.934 351.322 94.9661H383.858C375.557 120.529 349.751 134.654 324.621 134.654C286.7 134.654 257.305 106.402 257.305 70.0757C257.305 33.5275 286.247 4.60034 322.825 4.60034C359.849 4.60034 387 32.8526 387 71.4205C387 75.9047 386.775 78.609 385.879 82.8559ZM323.275 31.9553C305.549 31.9553 293.431 40.7012 288.721 56.6232H357.605C353.791 40.7012 341.675 31.9553 323.275 31.9553Z" fill="white"/>
<path d="M110.356 54.6011H79.0712V33.9131C85.6677 33.9131 91.1923 33.3767 95.6449 32.3038C100.098 31.231 103.74 29.583 106.571 27.3599C109.371 25.1801 111.582 22.3362 113.003 19.0861C113.538 17.8381 113.993 16.5576 114.366 15.2521C102.103 5.35203 86.8063 -0.0330894 71.0417 -3.18106e-05C30.9655 -3.18106e-05 0 30.4054 0 69.7099C0 108.49 31.3317 139.254 70.8586 139.254C85.7007 139.254 99.2416 134.886 110.356 127.332V54.6011Z" fill="white"/>
<path d="M89.0525 206.598C83.6772 213.767 78.6631 216.59 71.4152 216.59C59.8136 216.59 50.6635 207.444 50.6635 196.043C50.6635 184.449 59.6256 175.399 71.1332 175.399C78.7694 175.399 85.0897 179.073 89.0525 185.861H96.8817C92.7334 175.479 82.8287 168.99 71.2272 168.99C55.7568 168.99 43.5887 180.855 43.5887 195.855C43.5887 211.219 55.8508 223 71.6997 223C82.3563 223 90.747 218.38 96.9757 206.598H89.0525Z" fill="white"/>
<path d="M152.166 170.213V179.36C147.075 172.191 140.755 168.992 131.793 168.992C116.325 168.99 104.637 180.677 104.637 196.137C104.637 211.503 116.429 223 132.275 223C141.047 223 146.707 220.078 152.176 212.724V221.774H159.159V170.213H152.166ZM132.359 216.59C120.661 216.59 111.699 207.444 111.699 195.665C111.695 193.002 112.216 190.364 113.234 187.902C114.252 185.441 115.746 183.205 117.63 181.321C119.514 179.438 121.752 177.945 124.215 176.928C126.679 175.911 129.318 175.39 131.983 175.395C143.3 175.395 152.166 184.257 152.166 195.754C152.166 207.446 143.488 216.59 132.359 216.59Z" fill="white"/>
<path d="M178.011 177.567V170.213H171.033V221.774H178.011V191.705C178.011 182.089 182.916 176.811 192.633 175.869V168.99C185.18 169.363 180.749 171.912 178.011 177.567Z" fill="white"/>
<path d="M242.342 152.116V178.418C237.248 172.29 230.174 168.99 222.057 168.99C206.493 168.99 194.6 180.677 194.6 196.043C194.6 211.312 206.768 223 222.708 223C231.292 223 237.139 219.89 242.327 212.442V221.774H249.308V152.116H242.342ZM222.535 216.59C210.745 216.59 201.689 207.543 201.689 195.759C201.689 184.449 210.649 175.4 221.874 175.4C233.285 175.4 242.624 184.546 242.624 195.855C242.624 207.164 233.57 216.59 222.535 216.59Z" fill="white"/>
<path d="M280.374 205.822H272.55V222.286H268.474V181.599H279.714C290.897 181.599 295.414 185.396 295.414 193.932C295.414 201.64 291.449 205.822 280.374 205.822ZM278.336 185.287H272.55V202.134H280.1C288.199 202.134 291.283 199.823 291.283 193.932C291.283 185.673 286.103 185.287 278.336 185.287Z" fill="white"/>
<path d="M303.348 204.722V222.286H299.271V192.169H303.348V196.463C304.946 193.161 307.535 191.673 311.887 191.453V195.472C306.212 196.028 303.348 199.106 303.348 204.722Z" fill="white"/>
<path d="M328.084 223C318.719 223 311.944 216.284 311.944 207.033C311.944 198.226 318.83 191.46 327.755 191.46C336.789 191.46 343.401 198.134 343.401 207.318C343.401 216.338 336.901 223 328.084 223ZM327.763 195.198C321.084 195.198 316.082 200.317 316.082 207.145C316.082 214.192 321.029 219.257 327.983 219.257C334.538 219.257 339.278 214.247 339.278 207.365C339.27 200.371 334.365 195.198 327.763 195.198Z" fill="white"/>
</g>
<defs>
<clipPath id="clip0_9_19">
<rect width="387" height="223" fill="white"/>
</clipPath>
</defs>
</svg>
