<svg width="246" height="246" viewBox="0 0 246 246" fill="none" xmlns="http://www.w3.org/2000/svg">
<path d="M123 51.6975C83.0178 51.6975 45.5186 70.3085 17.4035 104.1C14.7259 107.314 15.1631 112.093 18.3837 114.771C19.7982 115.949 21.5168 116.527 23.2259 116.527C25.399 116.527 27.5578 115.594 29.0539 113.79C54.2401 83.5286 87.6005 66.8601 122.999 66.8601C158.404 66.8601 191.769 83.5281 216.944 113.79C219.621 117.011 224.4 117.448 227.62 114.771C230.834 112.099 231.273 107.314 228.6 104.1C200.491 70.3085 162.99 51.6975 123 51.6975Z" fill="#5856D6"/>
<path d="M123 89.631C93.038 89.631 64.9579 103.552 43.9316 128.819C41.254 132.04 41.6912 136.818 44.9123 139.496C48.1266 142.174 52.9106 141.73 55.583 138.516C73.6804 116.772 97.6211 104.794 123 104.794C148.387 104.794 172.328 116.766 190.416 138.516C191.916 140.319 194.074 141.247 196.248 141.247C197.955 141.247 199.676 140.675 201.09 139.496C204.308 136.818 204.745 132.04 202.07 128.819C181.052 103.552 152.969 89.631 123 89.631Z" fill="#5856D6"/>
<path d="M123 130.471C103.259 130.471 84.7883 139.607 70.9849 156.199C68.3068 159.42 68.7445 164.193 71.9651 166.87C73.3825 168.049 75.0982 168.626 76.8072 168.626C78.9833 168.626 81.142 167.693 82.6382 165.89C93.5103 152.827 107.842 145.628 123 145.628C138.16 145.628 152.494 152.827 163.363 165.89C166.041 169.11 170.817 169.548 174.034 166.876C177.254 164.198 177.692 159.42 175.017 156.199C161.216 139.606 142.745 130.471 123 130.471Z" fill="#5856D6"/>
<path d="M123 166.934C113.685 166.934 105.249 171.473 99.1404 178.812L123.002 194.303L146.858 178.812C140.756 171.473 132.317 166.934 123 166.934Z" fill="#5856D6"/>
</svg>
