<svg xmlns="http://www.w3.org/2000/svg" xmlns:xlink="http://www.w3.org/1999/xlink" viewBox="0 0 79.75 79.74"><defs><style>.cls-1{fill:url(#New_Gradient_Swatch_1);}.cls-2{fill:#26c2f6;}</style><linearGradient id="New_Gradient_Swatch_1" x1="19.95" y1="5.36" x2="59.8" y2="74.38" gradientUnits="userSpaceOnUse"><stop offset="0" stop-color="#fff"/><stop offset="1" stop-color="#e5e5e5"/></linearGradient></defs><g id="Layer_2" data-name="Layer 2"><g id="_03" data-name="03"><rect class="cls-1" width="79.75" height="79.74" rx="39.85"/><path class="cls-2" d="M66.45,44.64l-.15.46H49.82a4.88,4.88,0,0,0,3.73,5.36,8,8,0,0,0,4.58-.22,3.28,3.28,0,0,0,2.38-2.74c0-.1.2-.2.32-.26s.17,0,.25,0h5.06a7.66,7.66,0,0,1-.49,3.12A7.32,7.32,0,0,1,61,54.76a16,16,0,0,1-11.87-.18,9.63,9.63,0,0,1-5.6-6.39A14.13,14.13,0,0,1,45,36.34a10,10,0,0,1,6.81-4.8A14.42,14.42,0,0,1,60,32a9.12,9.12,0,0,1,5.23,5.1,14.5,14.5,0,0,1,1.13,4.53,2.74,2.74,0,0,0,.09.39Zm-6.27-3.86A4.87,4.87,0,0,0,58,36.51a5.63,5.63,0,0,0-8.23,4.27Z"/><path class="cls-2" d="M14.76,23,15,23c5.66,0,11.31,0,17,0a8.68,8.68,0,0,1,6,2.21A8.18,8.18,0,0,1,40.47,32a5.48,5.48,0,0,1-2.25,4.63,14.76,14.76,0,0,1-2.06,1,14.4,14.4,0,0,1,1.73.45A5.19,5.19,0,0,1,41,41.5a11.67,11.67,0,0,1,0,8,8.27,8.27,0,0,1-5.48,4.92,12.42,12.42,0,0,1-4,.64H15.22l-.46,0Zm7.36,26.27.06.06c3.07,0,6.13,0,9.19,0a3.15,3.15,0,0,0,3.13-2.21,6.16,6.16,0,0,0,.07-3.68,3.38,3.38,0,0,0-3.48-2.65H22.61l-.49,0Zm0-13.51c.05,0,.08.05.11.05,3,0,6.06,0,9.09,0a2,2,0,0,0,2-1.48,6.32,6.32,0,0,0,.13-3.87A2.33,2.33,0,0,0,31,28.7H22.12Z"/><path class="cls-2" d="M61.48,28.84H48.33v-3.9H61.48Z"/></g></g></svg>