<svg xmlns="http://www.w3.org/2000/svg" viewBox="0 0 79.75 79.74"><defs><style>.cls-1{fill:#f4519c;}.cls-2{fill:#fff;}</style></defs><g id="Layer_2" data-name="Layer 2"><g id="_03" data-name="03"><rect class="cls-1" width="79.75" height="79.74" rx="39.85"/><path class="cls-2" d="M63,40.23v1.56a3,3,0,0,0,0,.31,22.32,22.32,0,0,1-.49,3.81A23.47,23.47,0,0,1,47.07,63.16a22.45,22.45,0,0,1-5.68,1.13l-.92.08H38.91l-.21,0c-.92-.09-1.85-.15-2.76-.28a21.88,21.88,0,0,1-6.37-2,23.3,23.3,0,0,1-7.34-5.54A23.25,23.25,0,0,1,16.4,42.7c0-.3,0-.61-.07-.91V40.23a1.52,1.52,0,0,0,0-.21c.1-.92.15-1.84.29-2.76a22.05,22.05,0,0,1,2-6.37A23.41,23.41,0,0,1,29.87,19.83,22.94,22.94,0,0,1,38,17.73l.91-.07h1.56a1.2,1.2,0,0,0,.2,0c.54,0,1.08.07,1.61.13A22,22,0,0,1,47.59,19,23.33,23.33,0,0,1,63,39.31C63,39.61,63,39.92,63,40.23Zm-19.8,4-.09,0a32.53,32.53,0,0,0-4.73,2.06A28.87,28.87,0,0,0,31,51.92a22.32,22.32,0,0,0-3.2,4.17c-.13.22-.25.45-.37.67l.14.12a19.8,19.8,0,0,0,14.17,4,19.56,19.56,0,0,0,5.58-1.41.21.21,0,0,0,.14-.28c-.08-.41-.15-.83-.24-1.24a84.61,84.61,0,0,0-3.61-12.69C43.5,44.92,43.37,44.59,43.24,44.25Zm-3-6.67a73.66,73.66,0,0,1-20.54,2.86,20,20,0,0,0,5.12,13.94l.24-.37a33.4,33.4,0,0,1,7.51-8.22,27,27,0,0,1,8.1-4.44c.38-.13.77-.24,1.19-.37ZM20.13,37a75.71,75.71,0,0,0,18.48-2.44l-.08-.15a130,130,0,0,0-7.18-11.21c-.11-.15-.19-.18-.36-.09a20.22,20.22,0,0,0-6,4.45,19.81,19.81,0,0,0-4.52,8C20.37,36,20.26,36.44,20.13,37ZM35,21.63a108.43,108.43,0,0,1,7.45,11.69l.13,0c1-.47,2.12-.9,3.15-1.42a22.64,22.64,0,0,0,5.92-4.26c.46-.46.87-1,1.31-1.46a19.82,19.82,0,0,0-9-4.58A20.21,20.21,0,0,0,35,21.63Zm20.14,6.79A28.15,28.15,0,0,1,44,36.27l0,.1c.54,1.22,1.09,2.44,1.62,3.66.07.15.14.17.29.16,1.31-.09,2.62-.2,3.94-.24a34.73,34.73,0,0,1,4.89.21c1.35.15,2.68.35,4,.53l.84.15A20,20,0,0,0,55.13,28.42ZM50.81,57.56l.19-.12a20,20,0,0,0,8.34-13.1c0-.11,0-.16-.11-.19l-.83-.22a29.94,29.94,0,0,0-5.73-.87,28.41,28.41,0,0,0-5.05.17l-.7.11A88.22,88.22,0,0,1,50.81,57.56Z"/></g></g></svg>