<svg xmlns="http://www.w3.org/2000/svg" xmlns:xlink="http://www.w3.org/1999/xlink" viewBox="0 0 79.75 79.74"><defs><style>.cls-1{fill:url(#New_Gradient_Swatch_1);}.cls-2{fill:url(#linear-gradient);}</style><linearGradient id="New_Gradient_Swatch_1" x1="19.95" y1="5.36" x2="59.8" y2="74.38" gradientUnits="userSpaceOnUse"><stop offset="0" stop-color="#fff"/><stop offset="1" stop-color="#e5e5e5"/></linearGradient><linearGradient id="linear-gradient" x1="25.27" y1="39.87" x2="52.48" y2="39.87" gradientUnits="userSpaceOnUse"><stop offset="0" stop-color="#4068b5"/><stop offset="1" stop-color="#3f67b5"/></linearGradient></defs><g id="Layer_2" data-name="Layer 2"><g id="_03" data-name="03"><rect class="cls-1" width="79.75" height="79.74" rx="39.85"/><path class="cls-2" d="M33.67,65a1.27,1.27,0,0,1-.81-1.36q0-10,0-19.91v-.64H26.6c-1,0-1.32-.35-1.32-1.29q0-3.89,0-7.77c0-.9.37-1.27,1.29-1.27h6.29v-.57c0-2,0-4,0-6a12.09,12.09,0,0,1,2.89-7.76,10.17,10.17,0,0,1,6.76-3.54c2.41-.24,4.84-.17,7.26-.23.51,0,1,0,1.53,0a1,1,0,0,1,1.13,1.13q0,3.74,0,7.47c0,.76-.4,1.12-1.18,1.13-1.72,0-3.44,0-5.16.08a2.37,2.37,0,0,0-2.23,1.19,3.51,3.51,0,0,0-.38,1.45c0,1.85,0,3.7,0,5.63h7.3c1,0,1.37.35,1.37,1.36,0,2.55,0,5.11,0,7.66,0,1-.35,1.3-1.3,1.31H43.48v.61q0,9.93,0,19.86A1.39,1.39,0,0,1,42.71,65Z"/></g></g></svg>