<svg xmlns="http://www.w3.org/2000/svg" xmlns:xlink="http://www.w3.org/1999/xlink" viewBox="0 0 79.75 79.74"><defs><style>.cls-1{fill:url(#New_Gradient_Swatch_1);}.cls-2{fill:#da4b43;}</style><linearGradient id="New_Gradient_Swatch_1" x1="19.95" y1="5.36" x2="59.8" y2="74.38" gradientUnits="userSpaceOnUse"><stop offset="0" stop-color="#fff"/><stop offset="1" stop-color="#e5e5e5"/></linearGradient></defs><g id="Layer_2" data-name="Layer 2"><g id="_03" data-name="03"><rect class="cls-1" width="79.75" height="79.74" rx="39.85"/><path class="cls-2" d="M40.16,43.81H30.34v-5.9H46.81c0,1.38.07,2.73,0,4.07A17.19,17.19,0,0,1,44,50.86a15.14,15.14,0,0,1-10.51,6.49c-5.95.95-11.23-.54-15.45-4.91-4.67-4.83-6.17-10.65-4.24-17a16.6,16.6,0,0,1,13-12c5.52-1.22,10.51.29,14.9,3.82,0,0,0,.07.1.17-.39.42-.78.88-1.19,1.31-.9.93-1.82,1.84-2.71,2.77a.6.6,0,0,1-.91.11,12.47,12.47,0,0,0-6.61-2.08,10.31,10.31,0,0,0-10.23,7.53,10.86,10.86,0,0,0,6.63,13.59A10.6,10.6,0,0,0,38.83,47,8.14,8.14,0,0,0,40.16,43.81Z"/><path class="cls-2" d="M62.46,33v4.9h4.9v4.93h-4.9v4.93h-5v-4.9H52.58V37.89h4.9V33Z"/></g></g></svg>