<svg xmlns="http://www.w3.org/2000/svg" xmlns:xlink="http://www.w3.org/1999/xlink" viewBox="0 0 79.75 79.74"><defs><style>.cls-1{fill:url(#New_Gradient_Swatch_1);}.cls-2{fill:url(#linear-gradient);}.cls-3{fill:url(#linear-gradient-2);}.cls-4{fill:url(#linear-gradient-3);}</style><linearGradient id="New_Gradient_Swatch_1" x1="19.95" y1="5.36" x2="59.8" y2="74.38" gradientUnits="userSpaceOnUse"><stop offset="0" stop-color="#fff"/><stop offset="1" stop-color="#e5e5e5"/></linearGradient><linearGradient id="linear-gradient" x1="27.4" y1="60.97" x2="51.78" y2="18.74" gradientUnits="userSpaceOnUse"><stop offset="0" stop-color="#ffd036"/><stop offset="1" stop-color="#c80098"/></linearGradient><linearGradient id="linear-gradient-2" x1="34.21" y1="49.2" x2="45" y2="30.52" xlink:href="#linear-gradient"/><linearGradient id="linear-gradient-3" x1="49.5" y1="30.99" x2="52.21" y2="26.29" xlink:href="#linear-gradient"/></defs><g id="Layer_2" data-name="Layer 2"><g id="_03" data-name="03"><rect class="cls-1" width="79.75" height="79.74" rx="39.85"/><path class="cls-2" d="M29.37,18.91H49.84c.42.07.86.11,1.28.2a11.45,11.45,0,0,1,9.1,8.64c.17.61.23,1.25.34,1.88V50.09c0,.15,0,.29-.08.44a19.19,19.19,0,0,1-.88,3.25,11.22,11.22,0,0,1-10.66,7c-6.22.09-12.44,0-18.66,0a11.11,11.11,0,0,1-6.61-2.05,11.39,11.39,0,0,1-5-9.74q0-9.17,0-18.33a11,11,0,0,1,.21-2.36,11.39,11.39,0,0,1,8.62-9.08C28.1,19.08,28.74,19,29.37,18.91Zm27.47,21c0-3,0-6.06,0-9.09A8.12,8.12,0,0,0,56.42,28a7.84,7.84,0,0,0-7.67-5.35c-6.1,0-12.2,0-18.3,0a8.93,8.93,0,0,0-2.72.42,7.75,7.75,0,0,0-5.36,7.65q0,9.13,0,18.29a8.18,8.18,0,0,0,.42,2.77,7.83,7.83,0,0,0,7.61,5.32q9.21,0,18.41,0a7.88,7.88,0,0,0,8-8.1Z"/><path class="cls-3" d="M50.4,39.85A10.8,10.8,0,1,1,39.59,29.06,10.85,10.85,0,0,1,50.4,39.85Zm-3.72,0a7.08,7.08,0,1,0-7.07,7.08A7.08,7.08,0,0,0,46.68,39.85Z"/><path class="cls-4" d="M50.92,25.92a2.72,2.72,0,1,1-2.79,2.68A2.73,2.73,0,0,1,50.92,25.92Z"/></g></g></svg>