<svg xmlns="http://www.w3.org/2000/svg" viewBox="0 0 79.75 79.74"><defs><style>.cls-1{fill:#0087bf;}.cls-2{fill:#fff;}</style></defs><g id="Layer_2" data-name="Layer 2"><g id="_03" data-name="03"><rect class="cls-1" width="79.75" height="79.74" rx="39.85"/><path class="cls-2" d="M61,57.71h-8v-.46c0-4.54,0-9.08,0-13.62a12,12,0,0,0-.18-2,3.27,3.27,0,0,0-3.16-2.94,14.73,14.73,0,0,0-3.25.08c-1.42.19-2.19,1.15-2.4,2.77A12.14,12.14,0,0,0,44,43.15c0,4.65,0,9.31,0,14v.58H35.78V30.88h7.81v4.26c.72-.61,1.36-1.2,2-1.72a10.93,10.93,0,0,1,11.08-1.36c2.67,1,3.94,3.19,4.22,6A17.88,17.88,0,0,1,61,40c0,5.72,0,11.43,0,17.15Z"/><path class="cls-2" d="M28.86,57.71H20.71V30.88h8.15Z"/><path class="cls-2" d="M24.89,18a4.48,4.48,0,1,1,0,9,4.48,4.48,0,1,1,0-9Z"/></g></g></svg>