<svg xmlns="http://www.w3.org/2000/svg" viewBox="0 0 79.75 79.74"><defs><style>.cls-1{fill:#00b3f6;}.cls-2{fill:#fff;}</style></defs><g id="Layer_2" data-name="Layer 2"><g id="_03" data-name="03"><rect class="cls-1" width="79.75" height="79.74" rx="39.85"/><path class="cls-2" d="M26.91,62.15v-.57c0-2.17,0-4.34,0-6.51a.77.77,0,0,0-.34-.68A19,19,0,0,1,19.3,42.47,18.1,18.1,0,0,1,22.8,28a20.64,20.64,0,0,1,13.75-8.19,21.64,21.64,0,0,1,17,4.1,18.66,18.66,0,0,1,7.77,13.5,18.28,18.28,0,0,1-5.56,15.26A21.46,21.46,0,0,1,39.42,59a23.34,23.34,0,0,1-4.91-.69,1.09,1.09,0,0,0-.75.1c-2.12,1.14-4.22,2.31-6.33,3.48Zm-.32-16.27.07.07.46-.25c3.11-1.71,6.21-3.41,9.31-5.13a.56.56,0,0,1,.84.12c1.55,1.69,3.13,3.36,4.69,5.05.11.11.19.25.32.41L53.68,34l-.06-.08L43.5,39.52,38,33.73Z"/></g></g></svg>