<svg xmlns="http://www.w3.org/2000/svg" xmlns:xlink="http://www.w3.org/1999/xlink" viewBox="0 0 79.75 79.74"><defs><style>.cls-1{fill:url(#New_Gradient_Swatch_1);}.cls-2{fill:#df0218;}</style><linearGradient id="New_Gradient_Swatch_1" x1="19.95" y1="5.36" x2="59.8" y2="74.38" gradientUnits="userSpaceOnUse"><stop offset="0" stop-color="#fff"/><stop offset="1" stop-color="#e5e5e5"/></linearGradient></defs><g id="Layer_2" data-name="Layer 2"><g id="_03" data-name="03"><rect class="cls-1" width="79.75" height="79.74" rx="39.85"/><path class="cls-2" d="M37.83,48.61c-.35,1.37-.75,2.69-1,4A25.72,25.72,0,0,1,31.6,63.75a2.33,2.33,0,0,1-.57.4,2.94,2.94,0,0,1-.3-.62A26.19,26.19,0,0,1,30.55,56c.26-1.79.7-3.55,1.11-5.31.78-3.38,1.59-6.75,2.37-10.12a1.66,1.66,0,0,0-.06-.91,9.82,9.82,0,0,1,0-6.82,5.71,5.71,0,0,1,1.79-2.53,3.82,3.82,0,0,1,4.16-.61,3.29,3.29,0,0,1,1.88,3.41A21.43,21.43,0,0,1,41,37c-.43,1.7-1,3.37-1.46,5.07-.89,3.12,1.64,5.58,4.74,5.14a6.47,6.47,0,0,0,4.12-2.49,14.82,14.82,0,0,0,2.92-6.95,17,17,0,0,0,.17-6.39,8.74,8.74,0,0,0-6.68-7.15,13.18,13.18,0,0,0-11.67,2,12.09,12.09,0,0,0-4.54,12.19,5.88,5.88,0,0,0,1.28,2.51,1.81,1.81,0,0,1,.42,2c-.18.52-.27,1.06-.41,1.59a.91.91,0,0,1-1.43.69,7.83,7.83,0,0,1-4.43-5.1,14.64,14.64,0,0,1,2.4-13.71,17,17,0,0,1,11.32-6.71,19.25,19.25,0,0,1,9.79.59c5.25,1.85,8.76,5.38,10.12,10.87a17.31,17.31,0,0,1,.06,6.69,18.62,18.62,0,0,1-3.45,8.7,12.24,12.24,0,0,1-10.11,5.19A7.41,7.41,0,0,1,37.83,48.61Z"/></g></g></svg>