<svg xmlns="http://www.w3.org/2000/svg" xmlns:xlink="http://www.w3.org/1999/xlink" viewBox="0 0 79.75 79.74"><defs><style>.cls-1{fill:url(#New_Gradient_Swatch_1);}.cls-2{fill:#02aae9;}</style><linearGradient id="New_Gradient_Swatch_1" x1="19.95" y1="5.36" x2="59.8" y2="74.38" gradientUnits="userSpaceOnUse"><stop offset="0" stop-color="#fff"/><stop offset="1" stop-color="#e5e5e5"/></linearGradient></defs><g id="Layer_2" data-name="Layer 2"><g id="_03" data-name="03"><rect class="cls-1" width="79.75" height="79.74" rx="39.85"/><g id="VmquUq.tif"><path class="cls-2" d="M60.49,39.45A20.84,20.84,0,0,1,60.13,43a.59.59,0,0,0,0,.32,13.7,13.7,0,0,1,1.09,3.41,11.31,11.31,0,0,1-.45,5.2,12.32,12.32,0,0,1-9.15,8.34,10.72,10.72,0,0,1-6.19-.39c-.45-.17-.89-.37-1.35-.54a.48.48,0,0,0-.29,0,19.85,19.85,0,0,1-10.58-.84,20.33,20.33,0,0,1-13.4-18.32,19.65,19.65,0,0,1,.34-4.47.56.56,0,0,0,0-.29A12.94,12.94,0,0,1,19.06,32a11,11,0,0,1,.15-4.09,12.4,12.4,0,0,1,7.13-8.71,12,12,0,0,1,5.28-1,9.9,9.9,0,0,1,3.05.6c.53.19,1,.42,1.57.63a.41.41,0,0,0,.22,0,20.06,20.06,0,0,1,12.86,1.82A20.39,20.39,0,0,1,60,34.73,20.84,20.84,0,0,1,60.49,39.45Zm-3.27.07a17,17,0,0,0-2.67-9.34,17,17,0,0,0-17.64-7.55,2.31,2.31,0,0,1-1.53-.21,8.73,8.73,0,0,0-8.26,0,8.67,8.67,0,0,0-4.87,7.78,8.36,8.36,0,0,0,1,4.45,1.87,1.87,0,0,1,.21,1.16c-.1.65-.22,1.31-.29,2a15.94,15.94,0,0,0,.17,4.52A16.6,16.6,0,0,0,25.49,48a16.9,16.9,0,0,0,7,6.51,16.56,16.56,0,0,0,5.37,1.68,17,17,0,0,0,5.69-.16,2,2,0,0,1,1.38.18,8.59,8.59,0,0,0,1.44.6A9,9,0,0,0,58,46.83,8.26,8.26,0,0,0,57.06,44a1.84,1.84,0,0,1-.18-1.32A16,16,0,0,0,57.22,39.52Z"/><path class="cls-2" d="M40.4,50.81a16,16,0,0,1-4.51-.67,8.13,8.13,0,0,1-3.49-2.07,4.44,4.44,0,0,1-1.23-2.34,2.08,2.08,0,0,1,1.07-2.32,2.28,2.28,0,0,1,2.63.45c.38.39.71.83,1.05,1.25a4.62,4.62,0,0,0,2.18,1.65,6.35,6.35,0,0,0,4.56-.07A2.93,2.93,0,0,0,44.35,45a2.1,2.1,0,0,0-.94-2.59,7.26,7.26,0,0,0-1.91-.63c-1.86-.47-3.72-.92-5.57-1.41A7.63,7.63,0,0,1,33.16,39a4.9,4.9,0,0,1-1.9-3.36,7.07,7.07,0,0,1,.2-2.93A5.72,5.72,0,0,1,34,29.45a9.85,9.85,0,0,1,3.87-1.36,12.2,12.2,0,0,1,3.36-.1,11.59,11.59,0,0,1,5.39,1.88,5.17,5.17,0,0,1,1.62,1.67,3.09,3.09,0,0,1,.41,1.32,1.92,1.92,0,0,1-1.51,2,2.26,2.26,0,0,1-2.42-.63c-.33-.36-.65-.72-1-1.06a4.72,4.72,0,0,0-2.88-1.36A6.76,6.76,0,0,0,38,32a2.67,2.67,0,0,0-1.65,1.21,2.08,2.08,0,0,0-.25,1.44,1.82,1.82,0,0,0,1.11,1.3,7.93,7.93,0,0,0,1.83.63c1.65.37,3.3.73,4.94,1.11a8.62,8.62,0,0,1,3.28,1.44,5.34,5.34,0,0,1,2.17,3.64,6.92,6.92,0,0,1-.27,3.35,6.13,6.13,0,0,1-3,3.45,10.45,10.45,0,0,1-3.86,1.11C41.65,50.74,41,50.76,40.4,50.81Z"/></g></g></g></svg>