<svg xmlns="http://www.w3.org/2000/svg" viewBox="0 0 80 79.99"><defs><style>.cls-1{fill:#f7e332;stroke:#dcc62c;stroke-miterlimit:10;stroke-width:0.25px;}.cls-2{fill:#fff;}</style></defs><g id="Layer_2" data-name="Layer 2"><g id="_03" data-name="03"><rect class="cls-1" x="0.13" y="0.12" width="79.75" height="79.74" rx="39.85"/><path class="cls-2" d="M53.93,28.86c-.08,1.54-.15,3.09-.25,4.62,0,.47.12.58.53.46s1-.28,1.48-.48a3.41,3.41,0,0,1,3.6.58,2.13,2.13,0,0,1,.06,3.4,13.12,13.12,0,0,1-2.65,1.47c-.67.33-1.43.52-2.09.88a1,1,0,0,0-.5,1.46c1.64,3.69,4.08,6.62,8,8.11a11.51,11.51,0,0,0,1.77.47,1.63,1.63,0,0,1,1.21,2.34,3,3,0,0,1-1.46,1.48A14.7,14.7,0,0,1,59.31,55c-1,.19-1,.18-1.2,1.16-.45,2.15-1,2.52-3.16,2.2-.7-.1-1.4-.21-2.1-.27a7.33,7.33,0,0,0-5.09,1.38,21.33,21.33,0,0,1-3.67,2.31,10.57,10.57,0,0,1-10.74-1c-.63-.42-1.28-.83-1.88-1.3a7.78,7.78,0,0,0-6.23-1.34c-.66.1-1.32.25-2,.3a1.77,1.77,0,0,1-2-1.45c-.13-.49-.23-1-.33-1.47a.55.55,0,0,0-.51-.48c-1.11-.22-2.22-.45-3.3-.77a6.47,6.47,0,0,1-1.95-.92,3.42,3.42,0,0,1-1.1-1.4,1.5,1.5,0,0,1,1.14-2.09c4.23-.79,7-3.49,9.09-7a14,14,0,0,0,.8-1.65,1,1,0,0,0-.43-1.36,8.33,8.33,0,0,0-1.24-.6c-.82-.34-1.68-.61-2.48-1a4.49,4.49,0,0,1-1.25-.92,2.19,2.19,0,0,1,.3-3.4,3.2,3.2,0,0,1,3.31-.45,9.38,9.38,0,0,0,1.54.46c.61.13.66,0,.64-.58-.08-2-.25-4-.18-6.07.22-5.81,3.29-9.7,8.55-11.83a15.75,15.75,0,0,1,11.29-.13A13.11,13.11,0,0,1,53.91,28c0,.28,0,.55,0,.83ZM62.36,52c-.09-.22-.1-.25-.11-.25l-.47-.17C57,49.92,53.89,46.54,52,42a3,3,0,0,1,1-3.74,11.22,11.22,0,0,1,2.06-1.08c.74-.33,1.52-.59,2.27-.91a3.43,3.43,0,0,0,.6-.46,1.46,1.46,0,0,0-1.59-.16,4.56,4.56,0,0,1-4,.23,1.53,1.53,0,0,1-1-1.62c.09-2.54.17-5.09.15-7.63a9.28,9.28,0,0,0-3.36-6.85c-3.64-3.37-10-4.15-14.68-1.73a10.28,10.28,0,0,0-5.94,9.93c0,2.13.13,4.27.24,6.4A1.34,1.34,0,0,1,27,35.77a5,5,0,0,1-1,.36,5.67,5.67,0,0,1-3.46-.56,1.1,1.1,0,0,0-1.2.2,6.35,6.35,0,0,0,2.2,1.14A15.49,15.49,0,0,1,26,38.07a3,3,0,0,1,1.29,3.55,9.25,9.25,0,0,1-.8,1.89c-2.15,3.9-5.11,6.87-9.5,8.16,0,0-.06.07-.12.14a4.11,4.11,0,0,0,.63.27c1.21.3,2.4.67,3.62.87A2.06,2.06,0,0,1,23,54.63l.39,1.57c.61-.1,1.16-.21,1.71-.28a9.86,9.86,0,0,1,7.7,1.77,23.07,23.07,0,0,0,2.35,1.59,8.4,8.4,0,0,0,8.6.18,19.5,19.5,0,0,0,2.6-1.72,9.44,9.44,0,0,1,7-1.89c.83.08,1.65.2,2.53.31a7.43,7.43,0,0,1,.3-1.17A4.5,4.5,0,0,1,57,53.38a3.52,3.52,0,0,1,1.54-.52C59.8,52.55,61.06,52.26,62.36,52Z"/></g></g></svg>