<svg xmlns="http://www.w3.org/2000/svg" xmlns:xlink="http://www.w3.org/1999/xlink" viewBox="0 0 79.75 79.74"><defs><style>.cls-1{fill:url(#New_Gradient_Swatch_1);}.cls-2{fill:#f7e332;stroke:#dcc62c;stroke-miterlimit:10;stroke-width:0.25px;}</style><linearGradient id="New_Gradient_Swatch_1" x1="19.95" y1="5.36" x2="59.8" y2="74.38" gradientUnits="userSpaceOnUse"><stop offset="0" stop-color="#fff"/><stop offset="1" stop-color="#e5e5e5"/></linearGradient></defs><g id="Layer_2" data-name="Layer 2"><g id="_03" data-name="03"><rect class="cls-1" width="79.75" height="79.74" rx="39.85"/><path class="cls-2" d="M53.81,28.74c-.09,1.54-.15,3.08-.26,4.62,0,.47.13.58.53.45s1-.28,1.48-.47a3.4,3.4,0,0,1,3.6.58,2.12,2.12,0,0,1,.07,3.39,13.66,13.66,0,0,1-2.65,1.48c-.68.33-1.43.52-2.1.87a1,1,0,0,0-.5,1.46c1.64,3.7,4.09,6.62,8,8.12a15.37,15.37,0,0,0,1.77.47,1.63,1.63,0,0,1,1.22,2.34,3.07,3.07,0,0,1-1.46,1.47,14.69,14.69,0,0,1-4.3,1.32C58.2,55,58.19,55,58,56c-.45,2.14-1,2.52-3.17,2.2-.69-.11-1.39-.21-2.09-.27a7.23,7.23,0,0,0-5.09,1.38A21.05,21.05,0,0,1,44,61.61a10.56,10.56,0,0,1-10.74-.94c-.64-.42-1.29-.83-1.88-1.3A7.73,7.73,0,0,0,25.11,58c-.66.1-1.31.25-2,.3a1.76,1.76,0,0,1-2-1.46c-.14-.48-.24-1-.34-1.46a.55.55,0,0,0-.51-.48c-1.1-.23-2.22-.45-3.3-.78a6.32,6.32,0,0,1-2-.91,3.47,3.47,0,0,1-1.1-1.41,1.51,1.51,0,0,1,1.15-2.09c4.23-.79,7-3.49,9.09-7a15.7,15.7,0,0,0,.8-1.65,1,1,0,0,0-.43-1.35,8,8,0,0,0-1.25-.61c-.82-.34-1.67-.61-2.47-1a4.51,4.51,0,0,1-1.25-.91,2.18,2.18,0,0,1,.3-3.4,3.2,3.2,0,0,1,3.31-.46,8,8,0,0,0,1.54.46c.61.13.66,0,.63-.58-.07-2-.24-4.05-.17-6.06.21-5.82,3.28-9.71,8.54-11.84A15.8,15.8,0,0,1,45,15.21,13.11,13.11,0,0,1,53.78,27.9c0,.28,0,.56,0,.84Zm8.43,23.08c-.1-.21-.1-.24-.11-.25l-.47-.16c-4.81-1.62-7.89-5-9.78-9.58a3,3,0,0,1,1-3.74A10.06,10.06,0,0,1,54.93,37c.74-.34,1.52-.6,2.26-.92a3.05,3.05,0,0,0,.61-.46,1.49,1.49,0,0,0-1.6-.16,4.58,4.58,0,0,1-4,.24,1.55,1.55,0,0,1-1-1.63c.1-2.54.17-5.08.15-7.62A9.25,9.25,0,0,0,48,19.61c-3.64-3.37-10-4.15-14.67-1.73a10.32,10.32,0,0,0-5.95,9.93c0,2.14.14,4.27.24,6.4a1.35,1.35,0,0,1-.82,1.44,4.9,4.9,0,0,1-1,.35,5.71,5.71,0,0,1-3.47-.55,1.1,1.1,0,0,0-1.2.19,6.21,6.21,0,0,0,2.2,1.15A14.05,14.05,0,0,1,25.85,38a3,3,0,0,1,1.28,3.55,9.45,9.45,0,0,1-.79,1.89c-2.16,3.89-5.11,6.86-9.5,8.15,0,0-.07.08-.12.15a3.66,3.66,0,0,0,.63.26c1.2.31,2.4.67,3.62.87a2.06,2.06,0,0,1,1.88,1.69c.12.52.25,1,.39,1.56.61-.1,1.15-.2,1.7-.27a9.91,9.91,0,0,1,7.71,1.76A20.61,20.61,0,0,0,35,59.15a8.36,8.36,0,0,0,8.59.18,18,18,0,0,0,2.6-1.72,9.51,9.51,0,0,1,7-1.89c.82.09,1.65.21,2.53.32A6.56,6.56,0,0,1,56,54.86a4.84,4.84,0,0,1,.89-1.61,3.84,3.84,0,0,1,1.55-.52C59.68,52.42,60.93,52.13,62.24,51.82Z"/></g></g></svg>