<svg xmlns="http://www.w3.org/2000/svg" viewBox="0 0 79.75 79.74"><defs><style>.cls-1{fill:#5ebf4a;}.cls-2{fill:#fff;}</style></defs><g id="Layer_2" data-name="Layer 2"><g id="_03" data-name="03"><rect class="cls-1" width="79.75" height="79.74" rx="39.85"/><path class="cls-2" d="M40.32,16.82a23.74,23.74,0,1,1-23.76,23.9A23.66,23.66,0,0,1,40.32,16.82Zm-3,12.38a44.74,44.74,0,0,0-8.34.67,34.33,34.33,0,0,0-3.47.83A2.27,2.27,0,0,0,24,33.61a2.2,2.2,0,0,0,2.72,1.52c.54-.12,1.08-.29,1.62-.41A38.82,38.82,0,0,1,40.14,34a33.73,33.73,0,0,1,14.22,3.88,2.72,2.72,0,0,0,1.6.27,2.07,2.07,0,0,0,1.73-1.77,2.34,2.34,0,0,0-1.09-2.46,29.8,29.8,0,0,0-3-1.53A42.82,42.82,0,0,0,37.33,29.2Zm-.82,8.14c-1.19.07-2.39,0-3.56.22-2,.31-4,.7-6,1.14a1.92,1.92,0,1,0,1,3.71c1.78-.36,3.56-.81,5.36-1a30,30,0,0,1,14,1.72c1.49.58,2.89,1.37,4.33,2.07a1.81,1.81,0,0,0,2.51-.61A2,2,0,0,0,53.61,42a3.78,3.78,0,0,0-.63-.41A32.85,32.85,0,0,0,36.51,37.34Zm0,7.79a41.41,41.41,0,0,0-8.73,1.07,1.46,1.46,0,0,0-1.19,1,1.56,1.56,0,0,0,2.05,2,32.93,32.93,0,0,1,9.17-1,22.91,22.91,0,0,1,11,3.07,4.15,4.15,0,0,0,.63.32,1.45,1.45,0,0,0,2-1.54,2,2,0,0,0-1.14-1.54A27,27,0,0,0,36.48,45.13Z"/></g></g></svg>