<svg xmlns="http://www.w3.org/2000/svg" xmlns:xlink="http://www.w3.org/1999/xlink" viewBox="0 0 79.75 79.74"><defs><style>.cls-1{fill:url(#New_Gradient_Swatch_1);}.cls-2{fill:url(#linear-gradient);}</style><linearGradient id="New_Gradient_Swatch_1" x1="19.95" y1="5.36" x2="59.8" y2="74.38" gradientUnits="userSpaceOnUse"><stop offset="0" stop-color="#fff"/><stop offset="1" stop-color="#e5e5e5"/></linearGradient><linearGradient id="linear-gradient" x1="31.77" y1="25.67" x2="48.63" y2="54.87" gradientUnits="userSpaceOnUse"><stop offset="0" stop-color="#00f7ef"/><stop offset="0.5" stop-color="#87759a"/><stop offset="0.84" stop-color="#dd2264"/><stop offset="1" stop-color="#ff014f"/></linearGradient></defs><g id="Layer_2" data-name="Layer 2"><g id="_03" data-name="03"><rect class="cls-1" width="79.75" height="79.74" rx="39.85"/><path class="cls-2" d="M56.52,29a7.62,7.62,0,0,1-7.62-7.61,1.17,1.17,0,0,0-1.17-1.17H41.46a1.17,1.17,0,0,0-1.17,1.17V47.15a4.48,4.48,0,1,1-4.48-4.47A1.17,1.17,0,0,0,37,41.51V35.23a1.17,1.17,0,0,0-1.17-1.17A13.1,13.1,0,1,0,48.9,47.15V35.77a16.2,16.2,0,0,0,7.62,1.89,1.17,1.17,0,0,0,1.17-1.17V30.22A1.18,1.18,0,0,0,56.52,29Z"/></g></g></svg>