<svg xmlns="http://www.w3.org/2000/svg" xmlns:xlink="http://www.w3.org/1999/xlink" viewBox="0 0 79.75 79.74"><defs><style>.cls-1{fill:url(#linear-gradient);}.cls-2{fill:#fff;}</style><linearGradient id="linear-gradient" x1="19.95" y1="5.36" x2="59.8" y2="74.38" gradientUnits="userSpaceOnUse"><stop offset="0" stop-color="#00c5fc"/><stop offset="0.16" stop-color="#00bef6"/><stop offset="0.63" stop-color="#00aeea"/><stop offset="1" stop-color="#00a8e5"/></linearGradient></defs><g id="Layer_2" data-name="Layer 2"><g id="_03" data-name="03"><rect class="cls-1" width="79.75" height="79.74" rx="39.85"/><path class="cls-2" d="M19.58,55.71a20.07,20.07,0,0,0,13.78-4,9.74,9.74,0,0,1-8.85-6.55h4l0-.18C24,43.63,21.5,40.6,21.16,35.69a10,10,0,0,0,4.27,1.14,9.38,9.38,0,0,1-4.11-7.11,8.75,8.75,0,0,1,1.26-5.36,27.29,27.29,0,0,0,19.58,9.79c0-.3-.08-.49-.11-.69a9.38,9.38,0,0,1,9.28-10.82,9.61,9.61,0,0,1,6.76,2.61,1,1,0,0,0,.78.2,17.69,17.69,0,0,0,5-1.83l.57-.29a10.55,10.55,0,0,1-3.82,5.12c.55-.1,1.1-.18,1.64-.3s1.1-.28,1.63-.45,1.1-.38,1.75-.61a2.48,2.48,0,0,1-.27.44c-1.2,1.27-2.37,2.58-3.65,3.76A2,2,0,0,0,61,32.85C60.7,43.05,56.36,51,47.59,56.29a25.6,25.6,0,0,1-12.92,3.49,27.12,27.12,0,0,1-14.55-3.73C19.94,56,19.76,55.83,19.58,55.71Z"/></g></g></svg>