<svg xmlns="http://www.w3.org/2000/svg" xmlns:xlink="http://www.w3.org/1999/xlink" viewBox="0 0 79.75 79.74"><defs><style>.cls-1{fill:url(#New_Gradient_Swatch_1);}.cls-2{fill:#3d5a70;}</style><linearGradient id="New_Gradient_Swatch_1" x1="19.95" y1="5.36" x2="59.8" y2="74.38" gradientUnits="userSpaceOnUse"><stop offset="0" stop-color="#fff"/><stop offset="1" stop-color="#e5e5e5"/></linearGradient></defs><g id="Layer_2" data-name="Layer 2"><g id="_03" data-name="03"><rect class="cls-1" width="79.75" height="79.74" rx="39.85"/><path class="cls-2" d="M41.62,58.81c-.47-.07-1-.13-1.43-.23a11.72,11.72,0,0,1-5.07-2.27,6.67,6.67,0,0,1-2.65-5c0-.92-.09-1.84-.09-2.76q0-6.26,0-12.5v-.5H27.11a2.73,2.73,0,0,1,0-.37c0-1.63,0-3.26,0-4.89a.39.39,0,0,1,.33-.45A12.63,12.63,0,0,0,31.18,28a10.88,10.88,0,0,0,3.9-6.32c.17-.74.29-1.5.44-2.27h6.32v9.81h9.84v7.39H41.85v.44c0,3.64,0,7.28,0,10.92a9.69,9.69,0,0,0,.1,1.42,3.16,3.16,0,0,0,1.74,2.26,6.07,6.07,0,0,0,3.07.72A8,8,0,0,0,51.38,51l.3-.17c0,.13,0,.22,0,.32,0,1.74,0,3.48,0,5.23a.44.44,0,0,1-.31.48,20.32,20.32,0,0,1-7.1,1.85,1.66,1.66,0,0,0-.21.06Z"/></g></g></svg>