<svg xmlns="http://www.w3.org/2000/svg" xmlns:xlink="http://www.w3.org/1999/xlink" viewBox="0 0 79.75 79.74"><defs><style>.cls-1{fill:url(#New_Gradient_Swatch_3);}.cls-2{fill:#fff;}</style><linearGradient id="New_Gradient_Swatch_3" x1="19.95" y1="5.36" x2="59.8" y2="74.38" gradientUnits="userSpaceOnUse"><stop offset="0" stop-color="#84e46b"/><stop offset="1" stop-color="#30c92d"/></linearGradient></defs><g id="Layer_2" data-name="Layer 2"><g id="_03" data-name="03"><rect class="cls-1" width="79.75" height="79.74" rx="39.85"/><path class="cls-2" d="M39.4,14.5h3l.42.08c1.52.26,3.07.4,4.56.81A23.91,23.91,0,1,1,29.71,59.55a1.09,1.09,0,0,0-.9-.09c-4.3,1.38-8.6,2.74-12.9,4.11v-.1c.06-.14.13-.29.19-.44,1.31-3.88,2.61-7.76,3.95-11.63a1.4,1.4,0,0,0-.13-1.29,23,23,0,0,1-3-9.88,22.46,22.46,0,0,1,1.76-10.95,23.72,23.72,0,0,1,18-14.4C37.56,14.7,38.48,14.62,39.4,14.5ZM22,57.64c2.5-.79,4.91-1.55,7.3-2.32a.94.94,0,0,1,.89.1,20,20,0,0,0,13.39,2.89,19.74,19.74,0,0,0,13-7.17A19.31,19.31,0,0,0,61,35.87a19.45,19.45,0,0,0-7.23-13,20.28,20.28,0,0,0-22.66-2.06,20,20,0,0,0-7.86,7.79A19.49,19.49,0,0,0,21,41.81a19.71,19.71,0,0,0,3.33,8.07.86.86,0,0,1,.09.65c-.42,1.32-.88,2.63-1.33,3.94C22.7,55.5,22.35,56.52,22,57.64Z"/><path class="cls-2" d="M33.5,27.55c1.07-.29,1.55.38,1.9,1.31.49,1.27,1,2.52,1.58,3.75a1.68,1.68,0,0,1-.19,1.88c-.36.48-.76.94-1.15,1.4s-.51.79-.13,1.41a16,16,0,0,0,7.38,6.52c1.37.59,1.37.61,2.32-.52q.69-.82,1.35-1.68a.92.92,0,0,1,1.22-.34l4.93,2.33a.77.77,0,0,1,.42.79c0,2.69-1.35,4.22-4.31,5.06a6,6,0,0,1-3.48-.16,24.05,24.05,0,0,1-7.61-3.5,26.79,26.79,0,0,1-5.51-5.69,16.57,16.57,0,0,1-2.65-4.64,6.75,6.75,0,0,1,1.56-7.17A2.48,2.48,0,0,1,33.5,27.55Z"/></g></g></svg>