<svg xmlns="http://www.w3.org/2000/svg" xmlns:xlink="http://www.w3.org/1999/xlink" viewBox="0 0 79.75 79.74"><defs><style>.cls-1{fill:url(#linear-gradient);}.cls-2{fill:#fff;}</style><linearGradient id="linear-gradient" y1="39.87" x2="79.75" y2="39.87" gradientUnits="userSpaceOnUse"><stop offset="0" stop-color="#fb5c4a"/><stop offset="1" stop-color="#f55746"/></linearGradient></defs><g id="Layer_2" data-name="Layer 2"><g id="_03" data-name="03"><rect class="cls-1" width="79.75" height="79.74" rx="39.85"/><path class="cls-2" d="M17.73,44.07V36.64c.06-.78.11-1.55.18-2.32a20.69,20.69,0,0,1,.84-5.18,5.41,5.41,0,0,1,4.46-3.85,27.18,27.18,0,0,1,3.61-.3c3.81-.13,7.63-.25,11.45-.29,5.72-.05,11.43.05,17.14.44a6.75,6.75,0,0,1,3.5,1.1,6.14,6.14,0,0,1,2.31,3.68,27,27,0,0,1,.68,5.74,88.28,88.28,0,0,1-.09,10.79A19.52,19.52,0,0,1,61,51.59a5.4,5.4,0,0,1-5,3.87c-2.81.23-5.63.39-8.45.43-4.93.07-9.85.06-14.78,0a69.45,69.45,0,0,1-9.23-.49,5.49,5.49,0,0,1-4.88-4.08,23.34,23.34,0,0,1-.76-5C17.84,45.59,17.79,44.83,17.73,44.07ZM35.3,46.13l12-6.24-12-6.27Z"/></g></g></svg>